<svg width="289" height="46" viewBox="0 0 289 46" fill="none" xmlns="http://www.w3.org/2000/svg">
<path d="M10.8296 45H0.778498L16.0935 0.636362H28.1808L43.4742 45H33.423L22.3105 10.7741H21.9639L10.8296 45ZM10.2014 27.5621H33.9429V34.8839H10.2014V27.5621ZM54.3322 45L41.6383 0.636362H51.8844L59.2278 31.4613H59.5961L67.6976 0.636362H76.4707L84.5506 31.5263H84.9405L92.2839 0.636362H102.53L89.8361 45H80.6948L72.2466 15.9947H71.9L63.4735 45H54.3322ZM131.2 13.3952C131.026 11.6478 130.283 10.2904 128.968 9.3228C127.654 8.35523 125.871 7.87145 123.618 7.87145C122.087 7.87145 120.795 8.08807 119.74 8.52131C118.686 8.9401 117.877 9.52498 117.314 10.2759C116.766 11.0269 116.491 11.8789 116.491 12.832C116.462 13.6263 116.628 14.3195 116.989 14.9116C117.365 15.5037 117.877 16.0163 118.527 16.4496C119.177 16.8684 119.928 17.2366 120.78 17.5543C121.632 17.8576 122.542 18.1175 123.51 18.3342L127.495 19.2873C129.431 19.7205 131.207 20.2982 132.824 21.0202C134.442 21.7423 135.842 22.6304 137.027 23.6847C138.211 24.7389 139.128 25.9808 139.778 27.4105C140.442 28.8402 140.781 30.4793 140.796 32.3278C140.781 35.0427 140.088 37.3967 138.716 39.3896C137.359 41.368 135.395 42.906 132.824 44.0036C130.268 45.0866 127.185 45.6282 123.575 45.6282C119.993 45.6282 116.874 45.0794 114.217 43.9819C111.574 42.8844 109.509 41.2597 108.021 39.108C106.548 36.9418 105.776 34.2629 105.703 31.0714H114.78C114.881 32.5588 115.307 33.8008 116.058 34.7972C116.823 35.7792 117.841 36.523 119.112 37.0284C120.397 37.5194 121.849 37.7649 123.466 37.7649C125.055 37.7649 126.434 37.5339 127.604 37.0717C128.788 36.6096 129.705 35.967 130.355 35.1438C131.005 34.3207 131.33 33.3748 131.33 32.3061C131.33 31.3097 131.034 30.4721 130.441 29.7933C129.864 29.1146 129.012 28.5369 127.885 28.0604C126.773 27.5838 125.409 27.1506 123.791 26.7607L118.961 25.5476C115.22 24.6378 112.267 23.2153 110.101 21.2802C107.935 19.3451 106.859 16.7384 106.873 13.4602C106.859 10.7741 107.574 8.42744 109.018 6.4201C110.476 4.41276 112.476 2.84588 115.018 1.71946C117.56 0.593038 120.448 0.0298279 123.683 0.0298279C126.975 0.0298279 129.849 0.593038 132.304 1.71946C134.774 2.84588 136.694 4.41276 138.066 6.4201C139.438 8.42744 140.146 10.7525 140.189 13.3952H131.2ZM200.366 16.168H190.878C190.705 14.9405 190.351 13.8501 189.817 12.897C189.282 11.9294 188.596 11.1063 187.759 10.4276C186.921 9.74881 185.954 9.22893 184.856 8.8679C183.773 8.50687 182.596 8.32635 181.325 8.32635C179.029 8.32635 177.029 8.89678 175.325 10.0376C173.621 11.1641 172.299 12.8104 171.361 14.9766C170.422 17.1283 169.953 19.7422 169.953 22.8182C169.953 25.9808 170.422 28.638 171.361 30.7898C172.314 32.9415 173.643 34.5662 175.347 35.6637C177.051 36.7612 179.022 37.31 181.26 37.31C182.517 37.31 183.679 37.1439 184.748 36.8118C185.831 36.4796 186.791 35.9959 187.629 35.3604C188.467 34.7106 189.16 33.9235 189.708 32.9993C190.272 32.075 190.662 31.0208 190.878 29.8366L200.366 29.88C200.121 31.9162 199.507 33.8802 198.525 35.772C197.557 37.6494 196.25 39.3318 194.604 40.8192C192.972 42.2923 191.023 43.462 188.755 44.3285C186.502 45.1805 183.954 45.6065 181.109 45.6065C177.152 45.6065 173.614 44.7112 170.494 42.9205C167.389 41.1297 164.934 38.5375 163.129 35.1438C161.339 31.7501 160.443 27.6416 160.443 22.8182C160.443 17.9803 161.353 13.8646 163.173 10.4709C164.992 7.07718 167.462 4.49219 170.581 2.71591C173.7 0.925188 177.21 0.0298279 181.109 0.0298279C183.679 0.0298279 186.062 0.39086 188.257 1.11292C190.467 1.83499 192.423 2.8892 194.127 4.27557C195.832 5.64749 197.218 7.3299 198.287 9.3228C199.37 11.3157 200.063 13.5974 200.366 16.168ZM222.819 45H207.092V0.636362H222.949C227.411 0.636362 231.252 1.5245 234.473 3.30078C237.693 5.06262 240.17 7.59706 241.903 10.9041C243.65 14.2112 244.524 18.1681 244.524 22.7749C244.524 27.3961 243.65 31.3674 241.903 34.6889C240.17 38.0104 237.679 40.5593 234.43 42.3356C231.195 44.1119 227.324 45 222.819 45ZM216.472 36.9634H222.429C225.202 36.9634 227.534 36.4724 229.426 35.4904C231.332 34.494 232.762 32.956 233.715 30.8764C234.682 28.7824 235.166 26.0819 235.166 22.7749C235.166 19.4967 234.682 16.8178 233.715 14.7383C232.762 12.6587 231.339 11.128 229.447 10.1459C227.555 9.16394 225.223 8.67294 222.45 8.67294H216.472V36.9634ZM251.472 45V0.636362H260.852V20.1971H261.437L277.401 0.636362H288.644L272.181 20.5004L288.839 45H277.618L265.466 26.7607L260.852 32.3928V45H251.472Z" fill="black"/>
</svg>
