<svg width="345" height="203" viewBox="0 0 345 203" fill="none" xmlns="http://www.w3.org/2000/svg">
<rect width="345" height="203" fill="white"/>
<path d="M216.261 74.4687L173.243 49.4701C172.713 49.1621 172.113 49 171.502 49C170.89 49 170.29 49.1621 169.761 49.4701L126.743 74.4687C126.214 74.7758 125.774 75.2176 125.468 75.7497C125.162 76.2818 125.001 76.8855 125 77.5003V127.498C125 128.748 125.666 129.904 126.743 130.533L169.761 155.531C170.838 156.156 172.162 156.156 173.243 155.531L216.261 130.533C217.338 129.908 218 128.751 218 127.498V77.5003C218 76.2469 217.338 75.0937 216.261 74.4652V74.4687Z" fill="#8080F2"/>
<path d="M60.3948 97.0568L111.683 7.62003C113.545 4.38457 116.989 2 120.713 2H223.286C227.014 2 230.454 4.38457 232.319 7.62003L283.604 96.8612C284.519 98.4675 285 100.285 285 102.135C285 103.984 284.519 105.802 283.604 107.408L232.319 196.114C230.454 199.346 227.014 201 223.286 201H120.713C116.989 201 113.545 199.398 111.683 196.162L60.3982 107.312C59.4828 105.759 59 103.987 59 102.183C59 100.378 59.4828 98.6071 60.3982 97.0534L60.3948 97.0568ZM102.862 140.061C102.862 141.379 103.653 142.593 104.789 143.252L170.118 181.031C171.255 181.69 172.679 181.69 173.815 181.031L239.192 143.252C240.329 142.593 241.123 141.379 241.123 140.061V64.4997C241.123 63.1856 240.339 61.9676 239.206 61.3089L173.873 23.5366C173.311 23.2133 172.675 23.0433 172.027 23.0433C171.379 23.0433 170.742 23.2133 170.18 23.5366L104.796 61.3123C103.66 61.9711 102.859 63.1891 102.859 64.5032V140.065L102.862 140.061Z" fill="#4B32C3"/>
</svg>
