<svg width="345" height="203" viewBox="0 0 345 203" fill="none" xmlns="http://www.w3.org/2000/svg">
<g clip-path="url(#clip0_11_2)">
<rect width="345" height="203" fill="white"/>
<path d="M75.3793 88.75C74.902 87.0909 74.2315 85.625 73.3679 84.3523C72.5043 83.0568 71.4474 81.9659 70.1974 81.0795C68.9702 80.1705 67.5611 79.4773 65.9702 79C64.402 78.5227 62.6634 78.2841 60.7543 78.2841C57.1861 78.2841 54.0497 79.1705 51.3452 80.9432C48.6634 82.7159 46.5724 85.2955 45.0724 88.6818C43.5724 92.0455 42.8224 96.1591 42.8224 101.023C42.8224 105.886 43.5611 110.023 45.0384 113.432C46.5156 116.841 48.6065 119.443 51.3111 121.239C54.0156 123.011 57.2088 123.898 60.8906 123.898C64.2315 123.898 67.0838 123.307 69.4474 122.125C71.8338 120.92 73.652 119.227 74.902 117.045C76.1747 114.864 76.8111 112.284 76.8111 109.307L79.8111 109.75H61.8111V98.6364H91.027V107.432C91.027 113.568 89.7315 118.841 87.1406 123.25C84.5497 127.636 80.9815 131.023 76.4361 133.409C71.8906 135.773 66.6861 136.955 60.8224 136.955C54.277 136.955 48.527 135.511 43.5724 132.625C38.6179 129.716 34.7543 125.591 31.9815 120.25C29.2315 114.886 27.8565 108.523 27.8565 101.159C27.8565 95.5 28.6747 90.4545 30.3111 86.0227C31.9702 81.5682 34.2884 77.7955 37.2656 74.7045C40.2429 71.6136 43.7088 69.2614 47.6634 67.6477C51.6179 66.0341 55.902 65.2273 60.5156 65.2273C64.4702 65.2273 68.152 65.8068 71.5611 66.9659C74.9702 68.1023 77.9929 69.7159 80.6293 71.8068C83.2884 73.8977 85.4588 76.3864 87.1406 79.2727C88.8224 82.1364 89.902 85.2955 90.3793 88.75H75.3793ZM166.274 101.091C166.274 108.705 164.831 115.182 161.945 120.523C159.081 125.864 155.172 129.943 150.217 132.761C145.286 135.557 139.74 136.955 133.581 136.955C127.376 136.955 121.808 135.545 116.876 132.727C111.945 129.909 108.047 125.83 105.183 120.489C102.32 115.148 100.888 108.682 100.888 101.091C100.888 93.4773 102.32 87 105.183 81.6591C108.047 76.3182 111.945 72.25 116.876 69.4545C121.808 66.6364 127.376 65.2273 133.581 65.2273C139.74 65.2273 145.286 66.6364 150.217 69.4545C155.172 72.25 159.081 76.3182 161.945 81.6591C164.831 87 166.274 93.4773 166.274 101.091ZM151.308 101.091C151.308 96.1591 150.57 92 149.092 88.6136C147.638 85.2273 145.581 82.6591 142.922 80.9091C140.263 79.1591 137.149 78.2841 133.581 78.2841C130.013 78.2841 126.899 79.1591 124.24 80.9091C121.581 82.6591 119.513 85.2273 118.036 88.6136C116.581 92 115.854 96.1591 115.854 101.091C115.854 106.023 116.581 110.182 118.036 113.568C119.513 116.955 121.581 119.523 124.24 121.273C126.899 123.023 130.013 123.898 133.581 123.898C137.149 123.898 140.263 123.023 142.922 121.273C145.581 119.523 147.638 116.955 149.092 113.568C150.57 110.182 151.308 106.023 151.308 101.091ZM177.209 136V66.1818H204.754C210.027 66.1818 214.527 67.125 218.254 69.0114C222.004 70.875 224.857 73.5227 226.811 76.9545C228.788 80.3636 229.777 84.375 229.777 88.9886C229.777 93.625 228.777 97.6136 226.777 100.955C224.777 104.273 221.879 106.818 218.084 108.591C214.311 110.364 209.743 111.25 204.379 111.25H185.936V99.3864H201.993C204.811 99.3864 207.152 99 209.016 98.2273C210.879 97.4545 212.266 96.2955 213.175 94.75C214.107 93.2045 214.572 91.2841 214.572 88.9886C214.572 86.6705 214.107 84.7159 213.175 83.125C212.266 81.5341 210.868 80.3295 208.982 79.5114C207.118 78.6705 204.766 78.25 201.925 78.25H191.97V136H177.209ZM214.913 104.227L232.266 136H215.97L198.993 104.227H214.913ZM240.209 66.1818H258.413L277.641 113.091H278.459L297.686 66.1818H315.891V136H301.572V90.5568H300.993L282.925 135.659H273.175L255.107 90.3864H254.527V136H240.209V66.1818Z" fill="black"/>
</g>
<defs>
<clipPath id="clip0_11_2">
<rect width="345" height="203" fill="white"/>
</clipPath>
</defs>
</svg>
