<svg width="1000" height="599" viewBox="0 0 1000 599" fill="none" xmlns="http://www.w3.org/2000/svg">
<rect width="1000" height="599" fill="white"/>
<path d="M139.764 130.802L169.436 130.5C169.738 131.758 169.939 133.117 170.04 134.577C170.191 136.037 170.266 137.421 170.266 138.729C170.266 140.038 170.191 141.473 170.04 143.033C169.939 144.543 169.738 145.952 169.436 147.261L139.462 146.808L115.302 147.261C115 145.952 114.773 144.543 114.622 143.033C114.471 141.473 114.396 140.038 114.396 138.729C114.396 137.421 114.471 136.037 114.622 134.577C114.773 133.117 115 131.758 115.302 130.5L139.764 130.802ZM128.288 140.466C127.986 137.194 127.583 133.923 127.08 130.651C126.577 127.379 126.325 124.032 126.325 120.609C126.325 115.576 127.407 111.096 129.572 107.17C131.786 103.194 134.882 100.048 138.858 97.733C142.834 95.4177 147.44 94.26 152.675 94.26C157.406 94.26 161.785 94.713 165.812 95.619C169.838 96.4747 173.16 97.4058 175.778 98.4125C175.878 101.08 175.425 103.949 174.419 107.019C173.462 110.039 172.229 112.355 170.719 113.965C169.209 113.563 167.397 113.135 165.283 112.682C163.219 112.229 161.156 112.002 159.092 112.002C155.871 112.002 153.354 112.858 151.542 114.569C149.78 116.281 148.9 118.848 148.9 122.27C148.9 125.089 149.202 128.159 149.806 131.481C150.46 134.753 150.963 137.798 151.316 140.617V206C147.692 206.604 143.791 206.906 139.613 206.906C135.637 206.906 131.862 206.604 128.288 206V140.466ZM188.453 175.951V159.718H216.917V157.982C216.917 155.667 216.59 153.553 215.935 151.64C215.281 149.677 214.224 148.117 212.764 146.959C211.355 145.751 209.442 145.147 207.026 145.147C203.352 145.147 200.76 146.657 199.25 149.677C197.79 152.697 197.06 157.353 197.06 163.644V170.741C197.06 174.164 197.362 177.36 197.966 180.33C198.57 183.3 199.854 185.69 201.817 187.502C203.78 189.314 206.775 190.22 210.801 190.22C214.224 190.22 217.571 189.793 220.843 188.937C224.165 188.031 227.336 186.949 230.356 185.69C232.117 187.402 233.527 189.566 234.584 192.183C235.641 194.801 236.345 197.292 236.698 199.658C232.872 202.426 228.292 204.54 222.957 206C217.672 207.51 212.336 208.265 206.951 208.265C200.307 208.265 194.82 207.183 190.492 205.018C186.163 202.804 182.74 199.834 180.224 196.109C177.707 192.334 175.92 188.106 174.863 183.425C173.857 178.694 173.353 173.837 173.353 168.854C173.353 161.254 174.486 154.408 176.751 148.318C179.066 142.177 182.715 137.32 187.698 133.746C192.681 130.173 199.174 128.386 207.177 128.386C213.821 128.386 219.484 129.795 224.165 132.614C228.846 135.433 232.419 139.258 234.886 144.09C237.402 148.872 238.661 154.308 238.661 160.398C238.661 163.77 238.485 166.589 238.132 168.854C237.83 171.069 237.327 173.434 236.622 175.951H188.453ZM286.315 188.786C286.869 190.447 287.322 192.259 287.674 194.222C288.027 196.135 288.203 198.047 288.203 199.96C288.203 200.816 288.153 201.722 288.052 202.678C288.002 203.634 287.851 204.49 287.599 205.245C285.334 205.597 282.792 205.924 279.973 206.227C277.155 206.579 274.286 206.755 271.366 206.755C264.521 206.755 259.664 205.069 256.795 201.696C253.976 198.274 252.567 192.964 252.567 185.766V95.921L253.624 94.864H262.835C267.466 94.864 270.737 95.921 272.65 98.035C274.613 100.149 275.594 103.823 275.594 109.058V181.613C275.594 186.395 277.784 188.786 282.163 188.786H286.315ZM325.316 206C323.655 206.302 321.767 206.529 319.653 206.68C317.59 206.831 315.551 206.906 313.538 206.906C311.575 206.906 309.536 206.831 307.422 206.68C305.359 206.529 303.446 206.302 301.684 206V156.019C301.684 153.502 301.156 151.413 300.099 149.752C299.092 148.091 297.255 147.261 294.587 147.261H292.322C291.668 144.694 291.341 142.026 291.341 139.258C291.341 137.949 291.416 136.565 291.567 135.105C291.718 133.595 291.97 132.161 292.322 130.802C294.638 130.55 297.003 130.374 299.419 130.273C301.886 130.122 303.949 130.047 305.61 130.047H308.857C313.941 130.047 317.942 131.683 320.861 134.954C323.831 138.176 325.316 142.555 325.316 148.091V206ZM297.154 109.435C297.154 108.026 297.305 106.566 297.607 105.056C297.909 103.496 298.337 102.011 298.891 100.602C300.2 99.9477 301.886 99.394 303.949 98.941C306.063 98.488 308.127 98.2615 310.14 98.2615C312.204 98.2615 314.293 98.488 316.407 98.941C318.571 99.394 320.232 99.9477 321.39 100.602C321.944 102.011 322.371 103.521 322.673 105.132C322.975 106.692 323.126 108.127 323.126 109.435C323.126 110.794 322.975 112.254 322.673 113.814C322.371 115.375 321.944 116.834 321.39 118.193C320.232 118.848 318.571 119.401 316.407 119.854C314.293 120.307 312.204 120.534 310.14 120.534C308.127 120.534 306.038 120.333 303.874 119.93C301.71 119.477 300.049 118.898 298.891 118.193C298.337 116.834 297.909 115.375 297.607 113.814C297.305 112.254 297.154 110.794 297.154 109.435ZM335.942 134.35C338.509 132.488 341.202 131.154 344.021 130.349C346.84 129.544 349.482 129.141 351.948 129.141C354.918 129.141 357.259 129.745 358.97 130.953C360.681 132.161 362.317 133.998 363.877 136.464L406.912 202.149C404.597 203.71 402.005 204.968 399.136 205.924C396.317 206.881 393.574 207.359 390.906 207.359C387.987 207.359 385.571 206.78 383.658 205.622C381.746 204.414 380.034 202.628 378.524 200.262L335.942 134.35ZM382.903 130.651C384.212 130.349 385.672 130.122 387.282 129.971C388.893 129.82 390.504 129.745 392.114 129.745C394.329 129.745 396.393 129.896 398.305 130.198C400.218 130.45 402.055 130.827 403.817 131.33L404.421 132.916L378.977 172.025L373.466 177.461L356.629 206C355.421 206.352 354.012 206.579 352.401 206.68C350.841 206.831 349.205 206.906 347.494 206.906C345.179 206.906 342.939 206.78 340.774 206.529C338.66 206.277 336.723 205.824 334.961 205.169L334.281 203.659L361.461 161.455L367.426 156.094L382.903 130.651ZM127.156 267.119C127.156 261.885 128.112 258.21 130.025 256.096C131.988 253.982 135.284 252.925 139.915 252.925H149.126L150.183 253.982V326.689C150.183 328.954 150.686 330.716 151.693 331.974C152.75 333.182 154.487 333.786 156.903 333.786H165.359C166.617 337.46 167.246 341.185 167.246 344.96C167.246 345.816 167.196 346.722 167.095 347.678C167.045 348.634 166.894 349.49 166.642 350.245C163.874 350.597 160.678 350.924 157.054 351.227C153.43 351.579 150.108 351.755 147.088 351.755C140.242 351.755 135.209 350.069 131.988 346.696C128.766 343.274 127.156 337.964 127.156 330.766V267.119ZM168.077 275.5C168.781 278.168 169.134 280.911 169.134 283.729C169.134 286.8 168.781 289.644 168.077 292.261L139.915 291.808L115.302 292.261C114.648 289.593 114.32 286.749 114.32 283.729C114.32 281.011 114.648 278.268 115.302 275.5L140.595 275.877L168.077 275.5ZM203.565 351C200.243 351.604 196.342 351.906 191.863 351.906C187.886 351.906 184.086 351.604 180.462 351V240.921L181.519 239.864H190.73C195.361 239.864 198.658 240.921 200.621 243.035C202.584 245.149 203.565 248.823 203.565 254.058V351ZM244.864 332.125C244.864 335.044 245.14 337.813 245.694 340.43C246.248 342.997 247.204 345.237 248.563 347.149C246.852 348.559 244.713 349.767 242.146 350.773C239.579 351.73 236.81 352.208 233.841 352.208C229.109 352.208 225.812 350.95 223.95 348.433C222.138 345.916 221.232 342.292 221.232 337.561V305.473C221.232 302.051 220.779 299.534 219.873 297.923C218.967 296.262 217.256 295.432 214.739 295.432C213.229 295.432 211.442 295.86 209.379 296.715C207.315 297.571 205.251 298.955 203.188 300.868C201.174 302.73 199.413 305.247 197.903 308.418V287.806C201.426 284.333 205.251 281.213 209.379 278.444C213.556 275.676 218.338 274.292 223.724 274.292C228.304 274.292 232.154 275.45 235.275 277.765C238.446 280.03 240.837 283.176 242.448 287.202C244.058 291.229 244.864 295.885 244.864 301.17V332.125ZM327.758 313.325C327.758 321.379 326.424 328.4 323.756 334.39C321.089 340.38 317.163 345.035 311.978 348.357C306.844 351.629 300.477 353.265 292.877 353.265C285.226 353.265 278.809 351.604 273.624 348.282C268.44 344.96 264.539 340.304 261.922 334.314C259.304 328.325 257.996 321.328 257.996 313.325C257.996 305.222 259.304 298.2 261.922 292.261C264.589 286.271 268.515 281.641 273.7 278.369C278.884 275.047 285.276 273.386 292.877 273.386C300.527 273.386 306.945 275.047 312.129 278.369C317.314 281.691 321.214 286.347 323.832 292.336C326.449 298.276 327.758 305.272 327.758 313.325ZM282.231 313.325C282.231 317.453 282.458 321.203 282.911 324.575C283.414 327.947 284.421 330.64 285.931 332.653C287.491 334.616 289.806 335.598 292.877 335.598C295.997 335.598 298.313 334.616 299.823 332.653C301.333 330.64 302.314 327.947 302.767 324.575C303.271 321.203 303.522 317.453 303.522 313.325C303.522 309.148 303.271 305.373 302.767 302C302.314 298.628 301.333 295.96 299.823 293.997C298.313 291.984 295.997 290.977 292.877 290.977C289.806 290.977 287.491 291.984 285.931 293.997C284.421 295.96 283.414 298.628 282.911 302C282.458 305.373 282.231 309.148 282.231 313.325ZM351.232 274.594C355.712 274.594 359.11 276.154 361.425 279.275C363.791 282.345 364.973 286.498 364.973 291.732V351C363.312 351.302 361.425 351.529 359.311 351.68C357.247 351.831 355.209 351.906 353.195 351.906C351.232 351.906 349.194 351.831 347.08 351.68C345.016 351.529 343.104 351.302 341.342 351V275.651L342.399 274.594H351.232ZM381.734 305.549C381.734 301.522 381.005 298.829 379.545 297.47C378.085 296.111 376.55 295.432 374.939 295.432C372.775 295.482 370.485 296.338 368.069 297.999C365.703 299.66 363.539 301.698 361.576 304.114C359.613 306.48 358.204 308.846 357.348 311.211V290.826C359.714 288.159 362.306 285.567 365.124 283.05C367.993 280.483 371.064 278.394 374.335 276.783C377.607 275.122 381.055 274.292 384.679 274.292C389.058 274.292 392.783 275.324 395.853 277.387C398.974 279.401 401.339 282.194 402.95 285.768C404.561 289.342 405.366 293.444 405.366 298.074V351C403.705 351.302 401.817 351.529 399.703 351.68C397.64 351.831 395.601 351.906 393.588 351.906C391.625 351.906 389.586 351.831 387.472 351.68C385.409 351.529 383.496 351.302 381.734 351V305.549ZM422.127 305.398C422.127 301.371 421.347 298.704 419.786 297.395C418.276 296.086 416.716 295.432 415.105 295.432C413.142 295.432 410.978 296.288 408.612 297.999C406.297 299.66 404.108 301.774 402.044 304.341C399.98 306.858 398.344 309.425 397.136 312.042V290.222C399.401 287.504 402.069 284.937 405.139 282.521C408.21 280.055 411.507 278.067 415.03 276.557C418.604 275.047 422.152 274.292 425.675 274.292C430.105 274.292 433.804 275.349 436.774 277.463C439.744 279.527 441.983 282.37 443.493 285.994C445.003 289.618 445.758 293.746 445.758 298.376V332.125C445.758 335.044 446.035 337.813 446.589 340.43C447.143 342.997 448.124 345.237 449.533 347.149C447.822 348.559 445.683 349.767 443.116 350.773C440.549 351.73 437.781 352.208 434.811 352.208C430.08 352.208 426.783 350.95 424.92 348.433C423.058 345.916 422.127 342.292 422.127 337.561V305.398ZM457.4 345.79C457.5 343.274 458.18 340.455 459.438 337.334C460.747 334.214 462.257 331.747 463.968 329.935C467.29 331.647 470.713 333.132 474.236 334.39C477.81 335.598 481.358 336.202 484.882 336.202C487.801 336.202 489.99 335.699 491.45 334.692C492.96 333.685 493.715 332.427 493.715 330.917C493.715 329.457 493.187 328.174 492.13 327.066C491.073 325.909 489.311 324.902 486.845 324.046L478.464 321.026C474.941 319.718 471.745 318.082 468.876 316.119C466.007 314.106 463.742 311.664 462.081 308.795C460.42 305.876 459.589 302.403 459.589 298.376C459.589 293.242 460.797 288.813 463.213 285.088C465.629 281.364 469.027 278.495 473.406 276.481C477.785 274.418 482.919 273.386 488.808 273.386C493.589 273.386 498.597 274.04 503.832 275.349C509.067 276.658 513.32 278.117 516.592 279.728C516.692 281.54 516.466 283.553 515.912 285.768C515.358 287.983 514.553 290.021 513.496 291.883C512.489 293.746 511.357 295.155 510.099 296.111C506.978 294.702 503.58 293.419 499.906 292.261C496.232 291.053 492.608 290.449 489.034 290.449C487.021 290.449 485.486 290.927 484.429 291.883C483.372 292.84 482.843 293.972 482.843 295.281C482.843 296.59 483.296 297.697 484.202 298.603C485.108 299.509 486.568 300.314 488.581 301.019L497.943 304.341C503.681 306.354 508.463 309.299 512.288 313.174C516.113 317.05 518.026 322.209 518.026 328.652C518.026 336.152 515.132 342.141 509.344 346.621C503.606 351.05 495.628 353.265 485.41 353.265C480.024 353.265 474.89 352.51 470.008 351C465.176 349.54 460.973 347.804 457.4 345.79ZM541.032 320.951V304.718H569.496V302.982C569.496 300.667 569.169 298.553 568.514 296.64C567.86 294.677 566.803 293.117 565.343 291.959C563.934 290.751 562.021 290.147 559.605 290.147C555.931 290.147 553.339 291.657 551.829 294.677C550.369 297.697 549.639 302.353 549.639 308.644V315.741C549.639 319.164 549.941 322.36 550.545 325.33C551.149 328.3 552.433 330.69 554.396 332.502C556.359 334.314 559.354 335.22 563.38 335.22C566.803 335.22 570.15 334.793 573.422 333.937C576.744 333.031 579.915 331.949 582.935 330.69C584.697 332.402 586.106 334.566 587.163 337.183C588.22 339.801 588.925 342.292 589.277 344.658C585.452 347.426 580.871 349.54 575.536 351C570.251 352.51 564.916 353.265 559.53 353.265C552.886 353.265 547.4 352.183 543.071 350.018C538.742 347.804 535.32 344.834 532.803 341.109C530.286 337.334 528.499 333.106 527.442 328.425C526.436 323.694 525.932 318.837 525.932 313.854C525.932 306.254 527.065 299.408 529.33 293.318C531.645 287.177 535.294 282.32 540.277 278.746C545.26 275.173 551.753 273.386 559.756 273.386C566.4 273.386 572.063 274.795 576.744 277.614C581.425 280.433 584.999 284.258 587.465 289.09C589.982 293.872 591.24 299.308 591.24 305.398C591.24 308.77 591.064 311.589 590.711 313.854C590.409 316.069 589.906 318.434 589.201 320.951H541.032ZM615.263 274.594C619.793 274.594 623.191 276.154 625.456 279.275C627.771 282.345 628.929 286.498 628.929 291.732V351C627.268 351.302 625.38 351.529 623.266 351.68C621.202 351.831 619.164 351.906 617.151 351.906C615.188 351.906 613.149 351.831 611.035 351.68C608.971 351.529 607.059 351.302 605.297 351V275.651L606.354 274.594H615.263ZM670.227 332.125C670.227 335.044 670.504 337.813 671.058 340.43C671.611 342.997 672.593 345.237 674.002 347.149C672.291 348.559 670.152 349.767 667.585 350.773C665.018 351.73 662.249 352.208 659.28 352.208C654.548 352.208 651.251 350.95 649.389 348.433C647.527 345.916 646.596 342.292 646.596 337.561V305.473C646.596 302.051 646.143 299.534 645.237 297.923C644.381 296.262 642.695 295.432 640.178 295.432C638.618 295.432 636.806 295.86 634.742 296.715C632.729 297.521 630.69 298.88 628.627 300.792C626.613 302.705 624.826 305.247 623.266 308.418V287.731C626.84 284.308 630.69 281.213 634.818 278.444C638.995 275.676 643.752 274.292 649.087 274.292C653.718 274.292 657.593 275.45 660.714 277.765C663.835 280.03 666.2 283.176 667.811 287.202C669.422 291.229 670.227 295.885 670.227 301.17V332.125Z" fill="black"/>
<path d="M117.48 438.04C117.533 437.133 117.827 436.12 118.36 435C118.893 433.853 119.507 432.947 120.2 432.28C121.88 433.187 123.68 434.013 125.6 434.76C127.52 435.48 129.467 435.84 131.44 435.84C133.627 435.84 135.36 435.373 136.64 434.44C137.92 433.507 138.573 432.307 138.6 430.84C138.6 429.72 138.173 428.68 137.32 427.72C136.467 426.76 135.213 425.987 133.56 425.4L128.92 423.68C127.08 423.013 125.387 422.173 123.84 421.16C122.32 420.147 121.093 418.92 120.16 417.48C119.227 416.013 118.76 414.28 118.76 412.28C118.76 409.827 119.373 407.72 120.6 405.96C121.853 404.2 123.547 402.853 125.68 401.92C127.84 400.96 130.253 400.48 132.92 400.48C135.08 400.48 137.373 400.76 139.8 401.32C142.253 401.88 144.307 402.56 145.96 403.36C145.987 404.027 145.907 404.76 145.72 405.56C145.533 406.333 145.24 407.067 144.84 407.76C144.467 408.427 144.04 408.987 143.56 409.44C142.147 408.773 140.507 408.173 138.64 407.64C136.773 407.08 134.84 406.8 132.84 406.8C131.107 406.8 129.72 407.227 128.68 408.08C127.64 408.907 127.12 410.027 127.12 411.44C127.12 412.56 127.52 413.493 128.32 414.24C129.147 414.987 130.387 415.667 132.04 416.28L136.96 418.08C139.973 419.173 142.413 420.68 144.28 422.6C146.173 424.52 147.12 427.027 147.12 430.12C147.12 433.827 145.68 436.747 142.8 438.88C139.92 440.987 136.133 442.04 131.44 442.04C128.64 442.04 126.04 441.64 123.64 440.84C121.267 440.04 119.213 439.107 117.48 438.04ZM188.08 421.24C188.08 425.32 187.427 428.933 186.12 432.08C184.813 435.2 182.88 437.64 180.32 439.4C177.76 441.16 174.573 442.04 170.76 442.04C166.973 442.04 163.8 441.147 161.24 439.36C158.68 437.573 156.747 435.12 155.44 432C154.16 428.853 153.52 425.267 153.52 421.24C153.52 417.187 154.173 413.6 155.48 410.48C156.787 407.36 158.72 404.92 161.28 403.16C163.84 401.373 167 400.48 170.76 400.48C174.6 400.48 177.8 401.373 180.36 403.16C182.947 404.92 184.88 407.36 186.16 410.48C187.44 413.6 188.08 417.187 188.08 421.24ZM162.04 421.24C162.04 423.72 162.293 426.067 162.8 428.28C163.307 430.493 164.2 432.293 165.48 433.68C166.76 435.04 168.547 435.72 170.84 435.72C173.133 435.72 174.907 435.04 176.16 433.68C177.413 432.293 178.293 430.493 178.8 428.28C179.307 426.067 179.56 423.72 179.56 421.24C179.56 418.76 179.307 416.413 178.8 414.2C178.293 411.987 177.413 410.187 176.16 408.8C174.907 407.413 173.133 406.72 170.84 406.72C168.547 406.72 166.76 407.413 165.48 408.8C164.2 410.187 163.307 411.987 162.8 414.2C162.293 416.413 162.04 418.76 162.04 421.24ZM222.976 394.52C222.976 392.68 223.282 391.347 223.896 390.52C224.509 389.667 225.682 389.24 227.416 389.24H230.536L231.056 389.8V431.32C231.056 432.387 231.296 433.24 231.776 433.88C232.282 434.493 233.136 434.8 234.336 434.8H239.816C240.296 436.027 240.536 437.413 240.536 438.96C240.536 439.253 240.522 439.56 240.496 439.88C240.496 440.2 240.456 440.493 240.376 440.76C239.042 440.92 237.602 441.053 236.056 441.16C234.536 441.293 232.989 441.36 231.416 441.36C228.696 441.36 226.602 440.68 225.136 439.32C223.696 437.933 222.976 435.867 222.976 433.12V394.52ZM202.776 401.6L215.016 401.48H217.456L227.816 401.6L240.976 401.44C241.189 402.48 241.296 403.48 241.296 404.44C241.296 405.507 241.189 406.533 240.976 407.52L227.696 407.36L217.456 407.48H215.016L202.776 407.36L192.216 407.52C192.109 407.013 192.016 406.52 191.936 406.04C191.882 405.533 191.856 405 191.856 404.44C191.856 403.933 191.882 403.44 191.936 402.96C192.016 402.48 192.109 401.973 192.216 401.44L202.776 401.6ZM222.976 394.52C222.976 392.68 223.282 391.347 223.896 390.52C224.509 389.667 225.682 389.24 227.416 389.24H230.536L231.056 389.8V431.32C231.056 432.387 231.296 433.24 231.776 433.88C232.282 434.493 233.136 434.8 234.336 434.8H239.816C240.296 436.027 240.536 437.413 240.536 438.96C240.536 439.253 240.522 439.56 240.496 439.88C240.496 440.2 240.456 440.493 240.376 440.76C239.042 440.92 237.602 441.053 236.056 441.16C234.536 441.293 232.989 441.36 231.416 441.36C228.696 441.36 226.602 440.68 225.136 439.32C223.696 437.933 222.976 435.867 222.976 433.12V394.52ZM199.096 405.08C198.936 403.16 198.736 401.307 198.496 399.52C198.282 397.707 198.176 395.973 198.176 394.32C198.176 391.973 198.656 389.867 199.616 388C200.602 386.107 202.016 384.613 203.856 383.52C205.722 382.4 207.962 381.84 210.576 381.84C212.016 381.84 213.536 381.987 215.136 382.28C216.736 382.547 218.082 382.88 219.176 383.28C219.229 384.267 219.082 385.293 218.736 386.36C218.416 387.4 217.976 388.24 217.416 388.88C216.562 388.667 215.669 388.493 214.736 388.36C213.802 388.2 212.882 388.12 211.976 388.12C210.109 388.12 208.656 388.693 207.616 389.84C206.576 390.987 206.056 392.64 206.056 394.8C206.056 396.4 206.176 398.08 206.416 399.84C206.682 401.6 206.936 403.387 207.176 405.2V441C205.922 441.213 204.562 441.32 203.096 441.32C201.656 441.32 200.322 441.213 199.096 441V405.08ZM245.941 402.04C246.874 401.613 247.727 401.32 248.501 401.16C249.301 401 250.061 400.92 250.781 400.92C251.874 400.92 252.727 401.173 253.341 401.68C253.954 402.187 254.381 403.053 254.621 404.28L258.261 420.88C258.794 423.36 259.287 425.813 259.741 428.24C260.221 430.667 260.594 432.64 260.861 434.16C260.941 434.613 261.154 434.84 261.501 434.84L268.221 401.72C268.887 401.56 269.741 401.453 270.781 401.4C271.821 401.32 272.607 401.28 273.141 401.28C273.754 401.28 274.581 401.32 275.621 401.4C276.687 401.453 277.514 401.56 278.101 401.72L284.581 434.16C284.687 434.613 284.901 434.84 285.221 434.84C285.701 432.52 286.167 430.213 286.621 427.92C287.101 425.6 287.607 423.253 288.141 420.88L292.501 401.48C292.954 401.373 293.501 401.293 294.141 401.24C294.781 401.187 295.407 401.16 296.021 401.16C296.661 401.16 297.367 401.213 298.141 401.32C298.941 401.4 299.607 401.56 300.141 401.8L300.421 402.2L290.701 441.04C289.874 441.173 288.874 441.253 287.701 441.28C286.527 441.333 285.447 441.36 284.461 441.36C282.861 441.36 281.594 441.107 280.661 440.6C279.727 440.093 279.074 438.867 278.701 436.92L276.381 425.8C276.141 424.387 275.847 422.76 275.501 420.92C275.154 419.053 274.794 417.107 274.421 415.08C274.074 413.053 273.714 411.093 273.341 409.2H272.941C272.621 411.093 272.261 413.053 271.861 415.08C271.461 417.08 271.074 419.013 270.701 420.88C270.327 422.72 269.994 424.347 269.701 425.76L266.421 441C265.514 441.133 264.434 441.227 263.181 441.28C261.954 441.333 260.834 441.36 259.821 441.36C258.407 441.36 257.234 441.093 256.301 440.56C255.367 440.027 254.687 438.787 254.261 436.84L245.941 402.04ZM304.652 430.28C304.652 427.213 305.319 424.707 306.652 422.76C308.012 420.787 309.839 419.333 312.132 418.4C314.452 417.467 317.065 417 319.972 417C321.439 417 323.119 417.067 325.012 417.2C326.905 417.333 328.665 417.587 330.292 417.96V423.52C328.852 423.173 327.239 422.96 325.452 422.88C323.692 422.773 322.039 422.72 320.492 422.72C318.065 422.72 316.185 423.347 314.852 424.6C313.519 425.827 312.852 427.52 312.852 429.68C312.852 431.307 313.319 432.693 314.252 433.84C315.185 434.96 316.519 435.52 318.252 435.52C320.199 435.52 322.252 434.84 324.412 433.48C326.572 432.12 328.399 430.12 329.892 427.48L331.172 433.8C330.212 434.92 329.025 436.12 327.612 437.4C326.199 438.68 324.559 439.773 322.692 440.68C320.852 441.587 318.759 442.04 316.412 442.04C313.772 442.04 311.572 441.453 309.812 440.28C308.079 439.107 306.785 437.627 305.932 435.84C305.079 434.027 304.652 432.173 304.652 430.28ZM338.012 437.32C337.825 438.067 337.425 438.867 336.812 439.72C336.225 440.547 335.599 441.173 334.932 441.6C333.252 441.253 331.892 440.627 330.852 439.72C329.812 438.813 329.039 437.733 328.532 436.48C328.025 435.2 327.719 433.853 327.612 432.44V414.4C327.612 411.893 327.039 410.093 325.892 409C324.772 407.88 323.172 407.32 321.092 407.32C319.092 407.32 317.025 407.627 314.892 408.24C312.759 408.853 310.625 409.573 308.492 410.4C307.852 409.733 307.305 408.827 306.852 407.68C306.425 406.507 306.185 405.387 306.132 404.32C307.625 403.68 309.305 403.08 311.172 402.52C313.065 401.96 315.012 401.52 317.012 401.2C319.012 400.853 320.919 400.68 322.732 400.68C325.372 400.68 327.665 401.16 329.612 402.12C331.559 403.08 333.065 404.547 334.132 406.52C335.225 408.493 335.772 411.013 335.772 414.08V430.48C335.772 431.973 335.919 433.293 336.212 434.44C336.505 435.56 337.105 436.52 338.012 437.32ZM370.799 401.4C370.799 402.52 370.639 403.827 370.319 405.32C369.999 406.787 369.479 408.08 368.759 409.2C368.252 409.067 367.719 408.987 367.159 408.96C366.599 408.907 366.052 408.867 365.519 408.84C363.999 408.84 362.665 409.16 361.519 409.8C360.399 410.413 359.439 411.227 358.639 412.24C357.865 413.227 357.199 414.32 356.639 415.52C356.079 416.72 355.625 417.893 355.279 419.04L354.079 417.52C354.132 415.627 354.385 413.72 354.839 411.8C355.292 409.853 355.985 408.067 356.919 406.44C357.879 404.787 359.145 403.467 360.719 402.48C362.319 401.467 364.252 400.96 366.519 400.96C367.239 400.96 367.932 401 368.599 401.08C369.292 401.133 370.025 401.24 370.799 401.4ZM345.719 405.32C345.905 404.6 346.292 403.8 346.879 402.92C347.465 402.013 348.079 401.347 348.719 400.92C351.385 401.507 353.372 402.853 354.679 404.96C355.985 407.04 356.732 409.667 356.919 412.84V441C356.359 441.107 355.719 441.187 354.999 441.24C354.279 441.293 353.545 441.32 352.799 441.32C352.052 441.32 351.319 441.293 350.599 441.24C349.879 441.187 349.239 441.107 348.679 441V413.56C348.679 411.427 348.359 409.68 347.719 408.32C347.079 406.96 346.412 405.96 345.719 405.32ZM378.408 423.88V417.88H397.808V416.84C397.808 414.973 397.541 413.267 397.008 411.72C396.501 410.147 395.661 408.893 394.488 407.96C393.341 407.027 391.808 406.56 389.887 406.56C387.168 406.56 385.128 407.707 383.768 410C382.408 412.293 381.728 415.453 381.728 419.48V422C381.728 424.507 381.981 426.773 382.488 428.8C383.021 430.8 383.954 432.387 385.288 433.56C386.621 434.707 388.514 435.28 390.968 435.28C392.968 435.28 394.901 435 396.768 434.44C398.634 433.853 400.408 433.12 402.088 432.24C402.781 432.907 403.354 433.747 403.808 434.76C404.288 435.747 404.581 436.667 404.688 437.52C402.794 438.907 400.514 440.013 397.848 440.84C395.208 441.64 392.488 442.04 389.688 442.04C386.514 442.04 383.861 441.48 381.728 440.36C379.621 439.24 377.941 437.707 376.688 435.76C375.461 433.787 374.568 431.56 374.008 429.08C373.474 426.6 373.208 424.013 373.208 421.32C373.208 417.347 373.821 413.787 375.048 410.64C376.301 407.493 378.168 405.013 380.648 403.2C383.128 401.387 386.208 400.48 389.887 400.48C393.354 400.48 396.261 401.24 398.608 402.76C400.981 404.28 402.768 406.333 403.968 408.92C405.168 411.48 405.768 414.347 405.768 417.52C405.768 418.8 405.714 419.907 405.608 420.84C405.528 421.747 405.381 422.76 405.168 423.88H378.408ZM436.064 423.88V417.88H455.464V416.84C455.464 414.973 455.197 413.267 454.664 411.72C454.157 410.147 453.317 408.893 452.144 407.96C450.997 407.027 449.464 406.56 447.544 406.56C444.824 406.56 442.784 407.707 441.424 410C440.064 412.293 439.384 415.453 439.384 419.48V422C439.384 424.507 439.637 426.773 440.144 428.8C440.677 430.8 441.61 432.387 442.944 433.56C444.277 434.707 446.17 435.28 448.624 435.28C450.624 435.28 452.557 435 454.424 434.44C456.29 433.853 458.064 433.12 459.744 432.24C460.437 432.907 461.01 433.747 461.464 434.76C461.944 435.747 462.237 436.667 462.344 437.52C460.45 438.907 458.17 440.013 455.504 440.84C452.864 441.64 450.144 442.04 447.344 442.04C444.17 442.04 441.517 441.48 439.384 440.36C437.277 439.24 435.597 437.707 434.344 435.76C433.117 433.787 432.224 431.56 431.664 429.08C431.13 426.6 430.864 424.013 430.864 421.32C430.864 417.347 431.477 413.787 432.704 410.64C433.957 407.493 435.824 405.013 438.304 403.2C440.784 401.387 443.864 400.48 447.544 400.48C451.01 400.48 453.917 401.24 456.264 402.76C458.637 404.28 460.424 406.333 461.624 408.92C462.824 411.48 463.424 414.347 463.424 417.52C463.424 418.8 463.37 419.907 463.264 420.84C463.184 421.747 463.037 422.76 462.824 423.88H436.064ZM477.262 401.16C478.995 401.16 480.195 401.68 480.862 402.72C481.555 403.76 481.902 405.2 481.902 407.04V441C481.369 441.107 480.742 441.187 480.022 441.24C479.302 441.293 478.569 441.32 477.822 441.32C477.075 441.32 476.342 441.293 475.622 441.24C474.902 441.187 474.249 441.107 473.662 441V401.68L474.182 401.16H477.262ZM505.182 432.56C505.182 433.947 505.275 435.267 505.462 436.52C505.675 437.747 506.035 438.827 506.542 439.76C505.929 440.267 505.155 440.68 504.222 441C503.289 441.347 502.329 441.52 501.342 441.52C499.715 441.52 498.569 441.08 497.902 440.2C497.262 439.32 496.942 438.013 496.942 436.28V415.92C496.942 413.227 496.595 411.28 495.902 410.08C495.209 408.853 493.889 408.24 491.942 408.24C490.609 408.24 489.155 408.56 487.582 409.2C486.035 409.84 484.569 410.76 483.182 411.96C481.795 413.133 480.675 414.507 479.822 416.08V408.16C481.609 406.107 483.795 404.373 486.382 402.96C488.969 401.52 491.702 400.8 494.582 400.8C497.089 400.8 499.115 401.387 500.662 402.56C502.209 403.707 503.342 405.267 504.062 407.24C504.809 409.213 505.182 411.44 505.182 413.92V432.56ZM549.454 405.2C548.574 405.947 547.974 407.013 547.654 408.4C547.36 409.76 547.214 411.213 547.214 412.76V436.44C547.214 439.507 547.067 442.093 546.774 444.2C546.48 446.333 546.054 448.12 545.494 449.56C544.934 451.027 544.227 452.28 543.374 453.32C542.12 454.92 540.36 456.2 538.094 457.16C535.827 458.147 533.187 458.64 530.174 458.64C527.72 458.64 525.254 458.373 522.774 457.84C520.294 457.307 518.134 456.667 516.294 455.92C516.32 454.907 516.534 453.8 516.934 452.6C517.334 451.4 517.854 450.44 518.494 449.72C520.174 450.52 522.014 451.133 524.014 451.56C526.014 452.013 527.8 452.24 529.374 452.24C532.094 452.24 534.147 451.733 535.534 450.72C536.947 449.733 537.907 448.387 538.414 446.68C538.92 445 539.174 443.133 539.174 441.08V411.48C539.174 408.92 539.707 406.653 540.774 404.68C541.867 402.68 543.72 401.427 546.334 400.92C547 401.32 547.64 401.947 548.254 402.8C548.867 403.653 549.267 404.453 549.454 405.2ZM514.614 421.32C514.614 416.573 515.36 412.667 516.854 409.6C518.374 406.533 520.307 404.253 522.654 402.76C525 401.24 527.427 400.48 529.934 400.48C532.254 400.48 534.267 400.827 535.974 401.52C537.68 402.213 539.147 403.093 540.374 404.16C541.627 405.227 542.694 406.32 543.574 407.44L542.454 414.52C541.04 412.333 539.307 410.547 537.254 409.16C535.227 407.773 533.214 407.08 531.214 407.08C528.867 407.08 526.92 408.253 525.374 410.6C523.827 412.92 523.054 416.52 523.054 421.4C523.054 426.147 523.747 429.573 525.134 431.68C526.547 433.76 528.24 434.8 530.214 434.8C532.347 434.8 534.387 434.107 536.334 432.72C538.307 431.307 539.84 429.52 540.934 427.36L542.174 433.72C541.454 434.947 540.427 436.173 539.094 437.4C537.76 438.6 536.187 439.613 534.374 440.44C532.587 441.267 530.64 441.68 528.534 441.68C525.467 441.68 522.894 440.827 520.814 439.12C518.76 437.413 517.214 435.04 516.174 432C515.134 428.933 514.614 425.373 514.614 421.32ZM568.725 441C568.165 441.107 567.525 441.187 566.805 441.24C566.085 441.293 565.352 441.32 564.605 441.32C563.858 441.32 563.125 441.293 562.405 441.24C561.685 441.187 561.032 441.107 560.445 441V411.68C560.445 410.267 560.192 409.227 559.685 408.56C559.205 407.867 558.298 407.52 556.965 407.52H556.085C555.845 406.56 555.725 405.587 555.725 404.6C555.725 404.12 555.752 403.64 555.805 403.16C555.858 402.653 555.952 402.133 556.085 401.6C557.098 401.467 558.045 401.373 558.925 401.32C559.832 401.267 560.578 401.24 561.165 401.24H562.245C564.245 401.24 565.818 401.88 566.965 403.16C568.138 404.413 568.725 406.133 568.725 408.32V441ZM558.005 390.84C558.005 390.253 558.058 389.627 558.165 388.96C558.298 388.293 558.485 387.72 558.725 387.24C559.205 386.973 559.858 386.747 560.685 386.56C561.538 386.373 562.352 386.28 563.125 386.28C563.872 386.28 564.685 386.373 565.565 386.56C566.445 386.747 567.098 386.973 567.525 387.24C567.765 387.72 567.938 388.307 568.045 389C568.178 389.667 568.245 390.28 568.245 390.84C568.245 391.4 568.178 392.013 568.045 392.68C567.938 393.347 567.765 393.92 567.525 394.4C567.152 394.667 566.512 394.907 565.605 395.12C564.698 395.307 563.872 395.4 563.125 395.4C562.352 395.4 561.538 395.307 560.685 395.12C559.832 394.933 559.178 394.693 558.725 394.4C558.485 393.92 558.298 393.347 558.165 392.68C558.058 392.013 558.005 391.4 558.005 390.84ZM584.684 401.16C586.417 401.16 587.617 401.68 588.284 402.72C588.977 403.76 589.324 405.2 589.324 407.04V441C588.79 441.107 588.164 441.187 587.444 441.24C586.724 441.293 585.99 441.32 585.244 441.32C584.497 441.32 583.764 441.293 583.044 441.24C582.324 441.187 581.67 441.107 581.084 441V401.68L581.604 401.16H584.684ZM612.604 432.56C612.604 433.947 612.697 435.267 612.884 436.52C613.097 437.747 613.457 438.827 613.964 439.76C613.35 440.267 612.577 440.68 611.644 441C610.71 441.347 609.75 441.52 608.764 441.52C607.137 441.52 605.99 441.08 605.324 440.2C604.684 439.32 604.364 438.013 604.364 436.28V415.92C604.364 413.227 604.017 411.28 603.324 410.08C602.63 408.853 601.31 408.24 599.364 408.24C598.03 408.24 596.577 408.56 595.004 409.2C593.457 409.84 591.99 410.76 590.604 411.96C589.217 413.133 588.097 414.507 587.244 416.08V408.16C589.03 406.107 591.217 404.373 593.804 402.96C596.39 401.52 599.124 400.8 602.004 400.8C604.51 400.8 606.537 401.387 608.084 402.56C609.63 403.707 610.764 405.267 611.484 407.24C612.23 409.213 612.604 411.44 612.604 413.92V432.56ZM627.236 423.88V417.88H646.636V416.84C646.636 414.973 646.369 413.267 645.836 411.72C645.329 410.147 644.489 408.893 643.316 407.96C642.169 407.027 640.636 406.56 638.716 406.56C635.996 406.56 633.956 407.707 632.596 410C631.236 412.293 630.556 415.453 630.556 419.48V422C630.556 424.507 630.809 426.773 631.316 428.8C631.849 430.8 632.782 432.387 634.116 433.56C635.449 434.707 637.342 435.28 639.796 435.28C641.796 435.28 643.729 435 645.596 434.44C647.462 433.853 649.236 433.12 650.916 432.24C651.609 432.907 652.182 433.747 652.636 434.76C653.116 435.747 653.409 436.667 653.516 437.52C651.622 438.907 649.342 440.013 646.676 440.84C644.036 441.64 641.316 442.04 638.516 442.04C635.342 442.04 632.689 441.48 630.556 440.36C628.449 439.24 626.769 437.707 625.516 435.76C624.289 433.787 623.396 431.56 622.836 429.08C622.302 426.6 622.036 424.013 622.036 421.32C622.036 417.347 622.649 413.787 623.876 410.64C625.129 407.493 626.996 405.013 629.476 403.2C631.956 401.387 635.036 400.48 638.716 400.48C642.182 400.48 645.089 401.24 647.436 402.76C649.809 404.28 651.596 406.333 652.796 408.92C653.996 411.48 654.596 414.347 654.596 417.52C654.596 418.8 654.542 419.907 654.436 420.84C654.356 421.747 654.209 422.76 653.996 423.88H627.236ZM667.314 423.88V417.88H686.714V416.84C686.714 414.973 686.447 413.267 685.914 411.72C685.407 410.147 684.567 408.893 683.394 407.96C682.247 407.027 680.714 406.56 678.794 406.56C676.074 406.56 674.034 407.707 672.674 410C671.314 412.293 670.634 415.453 670.634 419.48V422C670.634 424.507 670.887 426.773 671.394 428.8C671.927 430.8 672.86 432.387 674.194 433.56C675.527 434.707 677.42 435.28 679.874 435.28C681.874 435.28 683.807 435 685.674 434.44C687.54 433.853 689.314 433.12 690.994 432.24C691.687 432.907 692.26 433.747 692.714 434.76C693.194 435.747 693.487 436.667 693.594 437.52C691.7 438.907 689.42 440.013 686.754 440.84C684.114 441.64 681.394 442.04 678.594 442.04C675.42 442.04 672.767 441.48 670.634 440.36C668.527 439.24 666.847 437.707 665.594 435.76C664.367 433.787 663.474 431.56 662.914 429.08C662.38 426.6 662.114 424.013 662.114 421.32C662.114 417.347 662.727 413.787 663.954 410.64C665.207 407.493 667.074 405.013 669.554 403.2C672.034 401.387 675.114 400.48 678.794 400.48C682.26 400.48 685.167 401.24 687.514 402.76C689.887 404.28 691.674 406.333 692.874 408.92C694.074 411.48 694.674 414.347 694.674 417.52C694.674 418.8 694.62 419.907 694.514 420.84C694.434 421.747 694.287 422.76 694.074 423.88H667.314ZM727.752 401.4C727.752 402.52 727.592 403.827 727.272 405.32C726.952 406.787 726.432 408.08 725.712 409.2C725.205 409.067 724.672 408.987 724.112 408.96C723.552 408.907 723.005 408.867 722.472 408.84C720.952 408.84 719.619 409.16 718.472 409.8C717.352 410.413 716.392 411.227 715.592 412.24C714.819 413.227 714.152 414.32 713.592 415.52C713.032 416.72 712.579 417.893 712.232 419.04L711.032 417.52C711.085 415.627 711.339 413.72 711.792 411.8C712.245 409.853 712.939 408.067 713.872 406.44C714.832 404.787 716.099 403.467 717.672 402.48C719.272 401.467 721.205 400.96 723.472 400.96C724.192 400.96 724.885 401 725.552 401.08C726.245 401.133 726.979 401.24 727.752 401.4ZM702.672 405.32C702.859 404.6 703.245 403.8 703.832 402.92C704.419 402.013 705.032 401.347 705.672 400.92C708.339 401.507 710.325 402.853 711.632 404.96C712.939 407.04 713.685 409.667 713.872 412.84V441C713.312 441.107 712.672 441.187 711.952 441.24C711.232 441.293 710.499 441.32 709.752 441.32C709.005 441.32 708.272 441.293 707.552 441.24C706.832 441.187 706.192 441.107 705.632 441V413.56C705.632 411.427 705.312 409.68 704.672 408.32C704.032 406.96 703.365 405.96 702.672 405.32ZM745.053 441C744.493 441.107 743.853 441.187 743.133 441.24C742.413 441.293 741.68 441.32 740.933 441.32C740.186 441.32 739.453 441.293 738.733 441.24C738.013 441.187 737.36 441.107 736.773 441V411.68C736.773 410.267 736.52 409.227 736.013 408.56C735.533 407.867 734.626 407.52 733.293 407.52H732.413C732.173 406.56 732.053 405.587 732.053 404.6C732.053 404.12 732.08 403.64 732.133 403.16C732.186 402.653 732.28 402.133 732.413 401.6C733.426 401.467 734.373 401.373 735.253 401.32C736.16 401.267 736.906 401.24 737.493 401.24H738.573C740.573 401.24 742.146 401.88 743.293 403.16C744.466 404.413 745.053 406.133 745.053 408.32V441ZM734.333 390.84C734.333 390.253 734.386 389.627 734.493 388.96C734.626 388.293 734.813 387.72 735.053 387.24C735.533 386.973 736.186 386.747 737.013 386.56C737.866 386.373 738.68 386.28 739.453 386.28C740.2 386.28 741.013 386.373 741.893 386.56C742.773 386.747 743.426 386.973 743.853 387.24C744.093 387.72 744.266 388.307 744.373 389C744.506 389.667 744.573 390.28 744.573 390.84C744.573 391.4 744.506 392.013 744.373 392.68C744.266 393.347 744.093 393.92 743.853 394.4C743.48 394.667 742.84 394.907 741.933 395.12C741.026 395.307 740.2 395.4 739.453 395.4C738.68 395.4 737.866 395.307 737.013 395.12C736.16 394.933 735.506 394.693 735.053 394.4C734.813 393.92 734.626 393.347 734.493 392.68C734.386 392.013 734.333 391.4 734.333 390.84ZM761.012 401.16C762.745 401.16 763.945 401.68 764.612 402.72C765.305 403.76 765.652 405.2 765.652 407.04V441C765.119 441.107 764.492 441.187 763.772 441.24C763.052 441.293 762.319 441.32 761.572 441.32C760.825 441.32 760.092 441.293 759.372 441.24C758.652 441.187 757.999 441.107 757.412 441V401.68L757.932 401.16H761.012ZM788.932 432.56C788.932 433.947 789.025 435.267 789.212 436.52C789.425 437.747 789.785 438.827 790.292 439.76C789.679 440.267 788.905 440.68 787.972 441C787.039 441.347 786.079 441.52 785.092 441.52C783.465 441.52 782.319 441.08 781.652 440.2C781.012 439.32 780.692 438.013 780.692 436.28V415.92C780.692 413.227 780.345 411.28 779.652 410.08C778.959 408.853 777.639 408.24 775.692 408.24C774.359 408.24 772.905 408.56 771.332 409.2C769.785 409.84 768.319 410.76 766.932 411.96C765.545 413.133 764.425 414.507 763.572 416.08V408.16C765.359 406.107 767.545 404.373 770.132 402.96C772.719 401.52 775.452 400.8 778.332 400.8C780.839 400.8 782.865 401.387 784.412 402.56C785.959 403.707 787.092 405.267 787.812 407.24C788.559 409.213 788.932 411.44 788.932 413.92V432.56ZM833.204 405.2C832.324 405.947 831.724 407.013 831.404 408.4C831.11 409.76 830.964 411.213 830.964 412.76V436.44C830.964 439.507 830.817 442.093 830.524 444.2C830.23 446.333 829.804 448.12 829.244 449.56C828.684 451.027 827.977 452.28 827.124 453.32C825.87 454.92 824.11 456.2 821.844 457.16C819.577 458.147 816.937 458.64 813.924 458.64C811.47 458.64 809.004 458.373 806.524 457.84C804.044 457.307 801.884 456.667 800.044 455.92C800.07 454.907 800.284 453.8 800.684 452.6C801.084 451.4 801.604 450.44 802.244 449.72C803.924 450.52 805.764 451.133 807.764 451.56C809.764 452.013 811.55 452.24 813.124 452.24C815.844 452.24 817.897 451.733 819.284 450.72C820.697 449.733 821.657 448.387 822.164 446.68C822.67 445 822.924 443.133 822.924 441.08V411.48C822.924 408.92 823.457 406.653 824.524 404.68C825.617 402.68 827.47 401.427 830.084 400.92C830.75 401.32 831.39 401.947 832.004 402.8C832.617 403.653 833.017 404.453 833.204 405.2ZM798.364 421.32C798.364 416.573 799.11 412.667 800.604 409.6C802.124 406.533 804.057 404.253 806.404 402.76C808.75 401.24 811.177 400.48 813.684 400.48C816.004 400.48 818.017 400.827 819.724 401.52C821.43 402.213 822.897 403.093 824.124 404.16C825.377 405.227 826.444 406.32 827.324 407.44L826.204 414.52C824.79 412.333 823.057 410.547 821.004 409.16C818.977 407.773 816.964 407.08 814.964 407.08C812.617 407.08 810.67 408.253 809.124 410.6C807.577 412.92 806.804 416.52 806.804 421.4C806.804 426.147 807.497 429.573 808.884 431.68C810.297 433.76 811.99 434.8 813.964 434.8C816.097 434.8 818.137 434.107 820.084 432.72C822.057 431.307 823.59 429.52 824.684 427.36L825.924 433.72C825.204 434.947 824.177 436.173 822.844 437.4C821.51 438.6 819.937 439.613 818.124 440.44C816.337 441.267 814.39 441.68 812.284 441.68C809.217 441.68 806.644 440.827 804.564 439.12C802.51 437.413 800.964 435.04 799.924 432C798.884 428.933 798.364 425.373 798.364 421.32Z" fill="black"/>
</svg>
