<svg width="345" height="203" viewBox="0 0 345 203" fill="none" xmlns="http://www.w3.org/2000/svg">
<g clip-path="url(#clip0_11_2)">
<rect width="345" height="203" fill="white"/>
<path d="M91.4181 135V67.3636H105.718V123.21H134.715V135H91.4181ZM180.876 86.8157C180.612 84.1516 179.478 82.082 177.474 80.6069C175.471 79.1317 172.752 78.3942 169.317 78.3942C166.983 78.3942 165.013 78.7244 163.406 79.3849C161.798 80.0234 160.565 80.9151 159.707 82.06C158.87 83.2049 158.452 84.5039 158.452 85.957C158.408 87.168 158.661 88.2248 159.211 89.1275C159.784 90.0302 160.565 90.8118 161.556 91.4723C162.547 92.1108 163.692 92.6722 164.991 93.1566C166.29 93.619 167.677 94.0153 169.152 94.3455L175.229 95.7986C178.179 96.4592 180.887 97.3398 183.353 98.4407C185.819 99.5415 187.955 100.896 189.76 102.503C191.565 104.11 192.963 106.004 193.954 108.183C194.967 110.363 195.484 112.862 195.506 115.68C195.484 119.819 194.428 123.408 192.336 126.446C190.266 129.463 187.272 131.808 183.353 133.481C179.456 135.132 174.755 135.958 169.251 135.958C163.791 135.958 159.035 135.121 154.984 133.448C150.955 131.775 147.807 129.298 145.539 126.017C143.293 122.714 142.115 118.63 142.005 113.765H155.843C155.997 116.032 156.646 117.926 157.791 119.445C158.958 120.942 160.51 122.076 162.448 122.847C164.407 123.595 166.62 123.969 169.086 123.969C171.508 123.969 173.61 123.617 175.394 122.913C177.199 122.208 178.597 121.228 179.588 119.973C180.579 118.718 181.074 117.276 181.074 115.647C181.074 114.128 180.623 112.851 179.72 111.816C178.84 110.781 177.541 109.901 175.823 109.174C174.128 108.447 172.047 107.787 169.581 107.192L162.217 105.343C156.514 103.956 152.012 101.787 148.709 98.837C145.407 95.8867 143.766 91.9126 143.788 86.9148C143.766 82.8196 144.856 79.2418 147.058 76.1815C149.282 73.1211 152.331 70.7322 156.206 69.0149C160.081 67.2976 164.484 66.4389 169.416 66.4389C174.436 66.4389 178.818 67.2976 182.56 69.0149C186.325 70.7322 189.254 73.1211 191.345 76.1815C193.437 79.2418 194.516 82.7866 194.582 86.8157H180.876ZM205.125 135V67.3636H231.81C236.94 67.3636 241.31 68.3434 244.921 70.3029C248.532 72.2404 251.284 74.9375 253.177 78.3942C255.093 81.8288 256.051 85.7919 256.051 90.2834C256.051 94.7749 255.082 98.7379 253.144 102.173C251.207 105.607 248.4 108.282 244.723 110.198C241.068 112.113 236.643 113.071 231.447 113.071H214.438V101.611H229.135C231.887 101.611 234.155 101.138 235.938 100.191C237.743 99.2223 239.086 97.8903 239.967 96.195C240.87 94.4776 241.321 92.5071 241.321 90.2834C241.321 88.0376 240.87 86.0781 239.967 84.4048C239.086 82.7095 237.743 81.3995 235.938 80.4748C234.133 79.5281 231.843 79.0547 229.069 79.0547H219.425V135H205.125Z" fill="black"/>
</g>
<defs>
<clipPath id="clip0_11_2">
<rect width="345" height="203" fill="white"/>
</clipPath>
</defs>
</svg>
