<svg width="345" height="203" viewBox="0 0 345 203" fill="none" xmlns="http://www.w3.org/2000/svg">
<rect width="345" height="203" fill="white"/>
<path d="M63.519 107.582V147H44.6092V78.8182H62.6312V90.8477H63.4302C64.9394 86.8822 67.4696 83.7454 71.0207 81.4371C74.5719 79.0993 78.8776 77.9304 83.938 77.9304C88.6728 77.9304 92.801 78.9661 96.3226 81.0376C99.8441 83.1091 102.581 86.0684 104.535 89.9155C106.488 93.733 107.464 98.2902 107.464 103.587V147H88.5545V106.961C88.5841 102.788 87.5187 99.5331 85.3584 97.1953C83.1982 94.8279 80.2241 93.6442 76.4362 93.6442C73.8912 93.6442 71.6422 94.1916 69.6891 95.2866C67.7655 96.3815 66.2563 97.9795 65.1614 100.081C64.096 102.152 63.5485 104.653 63.519 107.582ZM122.368 172.568V78.8182H141.011V90.2706H141.855C142.683 88.4358 143.882 86.5715 145.45 84.6776C147.048 82.754 149.12 81.156 151.665 79.8835C154.239 78.5814 157.435 77.9304 161.253 77.9304C166.224 77.9304 170.811 79.2325 175.014 81.8366C179.216 84.4112 182.575 88.3027 185.09 93.511C187.605 98.6897 188.863 105.185 188.863 112.998C188.863 120.603 187.635 127.025 185.179 132.263C182.752 137.471 179.438 141.422 175.235 144.115C171.063 146.778 166.387 148.11 161.208 148.11C157.539 148.11 154.417 147.503 151.842 146.29C149.297 145.076 147.211 143.552 145.583 141.718C143.956 139.853 142.713 137.974 141.855 136.08H141.278V172.568H122.368ZM140.878 112.909C140.878 116.963 141.441 120.5 142.565 123.518C143.69 126.537 145.317 128.889 147.448 130.576C149.579 132.233 152.168 133.062 155.216 133.062C158.294 133.062 160.898 132.218 163.028 130.532C165.159 128.815 166.772 126.448 167.867 123.429C168.991 120.381 169.554 116.875 169.554 112.909C169.554 108.973 169.006 105.511 167.911 102.522C166.816 99.5331 165.204 97.1953 163.073 95.5085C160.942 93.8217 158.323 92.9783 155.216 92.9783C152.138 92.9783 149.534 93.7921 147.403 95.4197C145.302 97.0473 143.69 99.3556 142.565 102.344C141.441 105.333 140.878 108.855 140.878 112.909ZM201.47 147V78.8182H219.492V90.8477H220.291C221.711 86.8526 224.078 83.701 227.393 81.3928C230.707 79.0845 234.673 77.9304 239.289 77.9304C243.965 77.9304 247.945 79.0993 251.23 81.4371C254.515 83.7454 256.704 86.8822 257.799 90.8477H258.51C259.9 86.9414 262.416 83.8194 266.056 81.4815C269.725 79.1141 274.061 77.9304 279.062 77.9304C285.424 77.9304 290.588 79.9575 294.554 84.0117C298.549 88.0363 300.546 93.7477 300.546 101.146V147H281.681V104.875C281.681 101.087 280.675 98.2459 278.662 96.3519C276.65 94.458 274.135 93.511 271.116 93.511C267.683 93.511 265.005 94.6059 263.082 96.7958C261.158 98.9561 260.196 101.812 260.196 105.363V147H241.864V104.475C241.864 101.131 240.902 98.4678 238.978 96.4851C237.084 94.5024 234.584 93.511 231.477 93.511C229.376 93.511 227.482 94.0437 225.795 95.109C224.138 96.1448 222.821 97.6096 221.844 99.5036C220.868 101.368 220.379 103.558 220.379 106.073V147H201.47Z" fill="black"/>
</svg>
